HIERARCHY
ROOT Hips
{
 OFFSET 0.000000 0.000000 0.000000
 CHANNELS 6 Xposition Yposition Zposition Yrotation Xrotation Zrotation
 JOINT Chest
 {
  OFFSET 0.000000 9.857222 0.000240
  CHANNELS 3 Yrotation Xrotation Zrotation
  JOINT Chest2
  {
   OFFSET 0.000000 10.876940 -0.000436
   CHANNELS 3 Yrotation Xrotation Zrotation
   JOINT Chest3
   {
    OFFSET 0.000000 9.827798 0.000000
    CHANNELS 3 Yrotation Xrotation Zrotation
    JOINT Chest4
    {
     OFFSET 0.000000 9.827798 0.000000
     CHANNELS 3 Yrotation Xrotation Zrotation
     JOINT Neck
     {
      OFFSET 0.000000 13.831992 0.000000
      CHANNELS 3 Yrotation Xrotation Zrotation
      JOINT Head
      {
       OFFSET 0.000000 9.147643 -0.001036
       CHANNELS 3 Yrotation Xrotation Zrotation
       End Site
       {
        OFFSET 0.000000 17.515799 -0.000541
       }
      }
     }
     JOINT RightCollar
     {
      OFFSET -3.001579 7.717577 0.000000
      CHANNELS 3 Yrotation Xrotation Zrotation
      JOINT RightShoulder
      {
       OFFSET -14.002642 0.000000 0.000000
       CHANNELS 3 Yrotation Xrotation Zrotation
       JOINT RightElbow
       {
        OFFSET -30.053852 0.000000 0.000000
        CHANNELS 3 Yrotation Xrotation Zrotation
        JOINT RightWrist
        {
         OFFSET -24.564923 0.000000 -0.000000
         CHANNELS 3 Yrotation Xrotation Zrotation
         End Site
         {
          OFFSET -18.334355 0.000000 0.000000
         }
        }
       }
      }
     }
     JOINT LeftCollar
     {
      OFFSET 3.001579 7.717577 0.000000
      CHANNELS 3 Yrotation Xrotation Zrotation
      JOINT LeftShoulder
      {
       OFFSET 14.002642 0.000000 0.000000
       CHANNELS 3 Yrotation Xrotation Zrotation
       JOINT LeftElbow
       {
        OFFSET 30.053852 0.000000 0.000000
        CHANNELS 3 Yrotation Xrotation Zrotation
        JOINT LeftWrist
        {
         OFFSET 24.564923 0.000000 -0.000000
         CHANNELS 3 Yrotation Xrotation Zrotation
         End Site
         {
          OFFSET 18.334355 0.000000 0.000000
         }
        }
       }
      }
     }
    }
   }
  }
 }
 JOINT RightHip
 {
  OFFSET -8.003235 -0.001175 -0.000120
  CHANNELS 3 Yrotation Xrotation Zrotation
  JOINT RightKnee
  {
   OFFSET 0.000000 -41.759727 0.000113
   CHANNELS 3 Yrotation Xrotation Zrotation
   JOINT RightAnkle
   {
    OFFSET 0.000000 -40.728748 0.000159
    CHANNELS 3 Yrotation Xrotation Zrotation
    JOINT RightToe
    {
     OFFSET 0.000000 -6.515296 14.732841
     CHANNELS 3 Yrotation Xrotation Zrotation
     End Site
     {
      OFFSET 0.000000 -1.502839 6.412115
     }
    }
   }
  }
 }
 JOINT LeftHip
 {
  OFFSET 8.003235 -0.001175 -0.000120
  CHANNELS 3 Yrotation Xrotation Zrotation
  JOINT LeftKnee
  {
   OFFSET 0.000000 -41.759727 0.000113
   CHANNELS 3 Yrotation Xrotation Zrotation
   JOINT LeftAnkle
   {
    OFFSET 0.000000 -40.728748 0.000159
    CHANNELS 3 Yrotation Xrotation Zrotation
    JOINT LeftToe
    {
     OFFSET 0.000000 -6.515296 14.732841
     CHANNELS 3 Yrotation Xrotation Zrotation
     End Site
     {
      OFFSET 0.000000 -1.502839 6.412115
     }
    }
   }
  }
 }
}
MOTION
Frames: 15
Frame Time: 0.016667
22.325135 90.401433 18.036054 -33.733621 -10.096215 0.721802 -2.372164 2.798058 -2.359647 -0.524294 0.698995 -0.909634 -0.524294 0.698995 -0.909634 -0.392176 0.525029 -0.681618 -5.152809 25.770456 1.004530 -9.436780 11.886574 2.975718 11.406071 7.529104 9.425813 69.825319 -4.707545 60.467637 9.692026 31.889896 7.812285 6.369191 9.292694 1.191071 -17.255694 6.979376 3.561058 -39.033344 6.188045 28.217515 -24.483528 -19.865517 25.940547 -1.849998 8.673998 8.154830 -7.052715 19.112349 -11.001109 -0.814839 -5.681081 6.107171 -2.340996 -3.517980 1.912021 0.243774 0.139563 0.170211 -2.361406 10.556315 1.191029 6.290284 5.106749 0.916222 3.129313 -3.991290 -3.349734 -0.037451 -0.055918 0.027674
22.334459 90.392629 18.162690 -33.870583 -9.854527 0.710619 -2.445299 2.623283 -2.379031 -0.541077 0.594928 -0.935672 -0.541077 0.594928 -0.935672 -0.404894 0.447026 -0.701222 -5.071108 25.946188 0.968117 -9.276364 12.203928 2.880353 11.495216 6.939283 9.459540 67.952774 -5.214289 64.447251 8.458549 31.727686 7.830947 5.999368 9.465704 1.120108 -16.335994 5.460790 4.399706 -37.639686 7.772091 28.731910 -24.587935 -19.473866 26.748573 -1.834577 8.345117 7.941966 -6.930564 18.944658 -10.999322 -0.755897 -5.718189 6.150576 -2.531655 -3.548844 1.872760 0.352213 0.133371 0.212942 -2.412268 10.397130 1.141682 6.351349 5.120767 0.919678 3.227923 -4.112092 -3.314511 -0.043910 -0.040973 0.016447
22.339824 90.387574 18.265730 -34.123022 -9.492940 0.711665 -2.406103 2.349874 -2.414972 -0.545530 0.494399 -0.983644 -0.545530 0.494399 -0.983644 -0.408351 0.371679 -0.737287 -4.962168 26.108583 0.983501 -9.079815 12.499250 2.872560 11.491897 6.245151 9.744376 66.345702 -5.138024 68.680583 7.325537 30.607557 7.003418 5.593419 9.643359 1.041521 -15.525052 4.090534 5.288943 -35.995570 9.293355 29.312726 -25.017752 -19.512779 27.972206 -1.871284 8.097648 7.541795 -6.498819 18.635047 -10.931620 -0.845031 -5.698844 6.209972 -2.644752 -3.576300 1.837796 0.437917 0.118620 0.243237 -2.212331 10.127474 1.152539 6.298652 5.111950 0.883856 3.304867 -4.200126 -3.260897 -0.048528 -0.043706 0.005258
22.362747 90.384780 18.342183 -34.455607 -8.967132 0.720615 -2.304273 1.902686 -2.373210 -0.558228 0.358862 -1.007325 -0.558228 0.358862 -1.007325 -0.418079 0.270068 -0.755164 -4.854537 26.265801 0.941760 -8.873184 12.780632 2.764064 11.446671 5.837616 9.999318 64.255171 -4.993750 72.770156 6.392010 29.557263 5.708126 5.172130 9.872860 0.998879 -14.656927 2.886409 5.928839 -34.451162 10.553793 29.863262 -25.812088 -19.833255 29.640104 -1.967854 8.029907 7.067610 -5.795770 18.147763 -10.785574 -1.059080 -5.632168 6.267357 -2.802334 -3.629309 1.818964 0.474890 0.125575 0.253071 -1.899588 9.675745 1.183082 6.262593 5.111412 0.845459 3.334432 -4.271564 -3.198997 -0.054871 -0.052120 -0.008706
22.383262 90.385652 18.402812 -34.727789 -8.405501 0.743684 -2.310270 1.407010 -2.237732 -0.604534 0.184403 -0.986149 -0.604534 0.184403 -0.986149 -0.453104 0.139278 -0.739430 -4.746512 26.403462 0.789860 -8.642390 13.017612 2.461018 11.388840 5.491971 10.036069 61.352118 -4.635603 76.454245 5.938596 29.368323 4.754060 4.762230 10.160498 1.050630 -13.435244 2.227696 6.324629 -32.943472 11.072989 30.693079 -26.968617 -20.297678 31.438365 -2.096058 8.095319 6.679953 -5.132525 17.601833 -10.675546 -1.310499 -5.545381 6.341304 -2.898165 -3.650801 1.780886 0.537010 0.102268 0.275590 -1.587627 9.174556 1.211616 6.260148 5.101822 0.791200 3.286447 -4.307898 -3.120121 -0.056399 -0.073756 -0.026202
22.393833 90.381084 18.435407 -34.994172 -7.659610 0.799183 -2.330177 0.761431 -1.995297 -0.670265 -0.044761 -0.915000 -0.670265 -0.044761 -0.915000 -0.502767 -0.032567 -0.686300 -4.671659 26.526885 0.522775 -8.446368 13.222509 1.961460 11.181008 5.028437 9.859689 57.956120 -3.774002 79.559619 6.054984 30.148854 4.793871 4.356394 10.355772 1.155196 -11.961704 2.184951 6.524581 -31.507845 10.756448 31.646669 -28.182232 -20.470589 33.335174 -2.266394 8.064580 6.212446 -4.544156 16.865337 -10.602031 -1.511212 -5.471020 6.410069 -2.901931 -3.715492 1.764487 0.523601 0.123706 0.264483 -1.253243 8.452496 1.208611 6.384442 5.132708 0.793044 3.118486 -4.351489 -3.077901 -0.044813 -0.090296 -0.042735
22.391816 90.373463 18.459671 -35.173254 -6.936037 0.872134 -2.397825 0.232009 -1.754346 -0.729246 -0.253310 -0.832126 -0.729246 -0.253310 -0.832126 -0.547280 -0.188991 -0.624397 -4.615137 26.603069 0.253687 -8.284451 13.341945 1.465531 10.762645 4.275845 9.583272 54.559209 -2.444865 82.023485 6.559520 31.371769 5.570972 3.976408 10.492361 1.384311 -10.528429 2.520966 6.771360 -29.981778 9.659394 32.632558 -29.364473 -20.359259 35.216732 -2.444179 8.125870 5.630989 -4.099965 16.147597 -10.570567 -1.627891 -5.414128 6.451796 -2.949664 -3.770621 1.748309 0.530553 0.138900 0.261308 -1.111900 7.733643 1.126719 6.600047 5.178450 0.864986 3.003741 -4.392939 -3.067865 -0.044045 -0.101867 -0.065415
22.376218 90.364494 18.488847 -35.335171 -6.218461 0.942657 -2.530621 -0.271196 -1.508658 -0.791612 -0.479084 -0.744449 -0.791612 -0.479084 -0.744449 -0.594290 -0.358350 -0.558955 -4.548340 26.719031 -0.025624 -8.101734 13.535252 0.947131 10.542741 3.934171 9.330459 51.127095 -1.117765 83.738037 6.938708 32.936814 6.520265 3.644213 10.629013 1.527745 -9.047733 3.205126 6.946601 -28.465825 8.169885 33.429350 -30.355773 -19.875865 37.234095 -2.602758 8.112084 5.010384 -3.752112 15.450752 -10.537542 -1.679252 -5.389392 6.459790 -2.994477 -3.828618 1.718457 0.580224 0.158737 0.275839 -1.048974 7.030742 0.995499 6.920301 5.209378 1.029104 2.841898 -4.437906 -3.098686 -0.058254 -0.107332 -0.091935
22.353649 90.357282 18.528086 -35.481537 -5.659977 1.021907 -2.768355 -0.872457 -1.252120 -0.903224 -0.740733 -0.648638 -0.903224 -0.740733 -0.648638 -0.678195 -0.554594 -0.487568 -4.450064 26.989263 -0.369998 -7.847626 14.010964 0.298153 10.570496 3.811684 9.050572 47.504590 0.446005 85.110334 7.222946 34.727197 7.605254 3.329875 10.743092 1.536952 -7.480031 4.197830 7.018261 -26.822836 6.821468 34.009315 -31.220806 -19.640526 39.433245 -2.786741 8.214183 4.481545 -3.495512 14.925627 -10.554800 -1.674535 -5.397274 6.474173 -3.038297 -3.859024 1.690319 0.625915 0.157804 0.288770 -1.015307 6.505513 0.826526 7.333890 5.205634 1.224487 2.658964 -4.462369 -3.137846 -0.076765 -0.120014 -0.115374
22.328222 90.356186 18.571661 -35.688579 -5.144255 1.076091 -2.975314 -1.608883 -0.997440 -1.024690 -1.030557 -0.570179 -1.024690 -1.030557 -0.570179 -0.769459 -0.771965 -0.429353 -4.354117 27.383326 -0.708865 -7.600609 14.719139 -0.345744 10.688037 4.412018 8.854014 43.881016 1.788931 85.753307 7.294065 36.362204 8.638214 3.033422 10.899585 1.557063 -5.857985 5.445513 7.171041 -25.203116 5.575696 34.654702 -31.898313 -19.886345 41.400377 -2.991761 8.314593 4.189811 -3.170302 14.458092 -10.513929 -1.644968 -5.430255 6.438483 -3.158463 -3.858379 1.671361 0.690107 0.138536 0.310603 -0.760150 6.050907 0.694834 7.649010 5.158246 1.446130 2.420161 -4.466672 -3.194632 -0.097294 -0.142091 -0.134749
22.274418 90.356559 18.639705 -35.792774 -4.771088 1.135560 -3.217944 -2.219681 -0.868629 -1.108677 -1.328526 -0.532431 -1.108677 -1.328526 -0.532431 -0.832629 -0.995434 -0.401718 -4.313710 27.844137 -0.971912 -7.471862 15.558800 -0.845275 10.648230 5.292094 8.848976 40.963844 2.867846 86.295671 6.602410 37.368157 9.016259 2.851540 11.142979 1.743946 -4.398239 6.643277 7.522069 -23.650907 4.512946 35.555379 -32.382361 -20.702212 42.756651 -3.215786 8.310088 4.091158 -3.167683 14.144635 -10.534672 -1.448776 -5.518094 6.389215 -3.301540 -3.801067 1.643396 0.797576 0.072437 0.347363 -0.255141 5.801451 0.648159 7.609656 5.019511 1.526408 2.170974 -4.442258 -3.197195 -0.105474 -0.165898 -0.142646
22.193004 90.347555 18.707613 -35.925613 -4.229959 1.165076 -3.317172 -2.808622 -0.867379 -1.126533 -1.628815 -0.547364 -1.126533 -1.628815 -0.547364 -0.846303 -1.220609 -0.413500 -4.339252 28.306246 -1.111533 -7.488712 16.409686 -1.111692 10.444453 6.223437 9.081886 38.994426 3.672981 87.005628 5.161873 37.901131 8.693582 2.773689 11.370081 2.011001 -3.380537 7.341542 8.118044 -22.250611 3.846490 36.413987 -32.867937 -21.990209 43.921680 -3.426880 8.260843 3.848600 -3.377666 13.665862 -10.556538 -1.068685 -5.651561 6.351814 -3.396056 -3.770020 1.599373 0.892007 0.040476 0.380662 0.469380 5.427651 0.696037 7.377424 4.837972 1.530694 1.939209 -4.458264 -3.190984 -0.102063 -0.145843 -0.142374
22.056031 90.323331 18.762978 -35.986344 -3.584993 1.172372 -3.398079 -3.430629 -0.955333 -1.093530 -1.995046 -0.600494 -1.093530 -1.995046 -0.600494 -0.822027 -1.495217 -0.453897 -4.422694 28.851719 -1.183181 -7.623985 17.420166 -1.250930 10.258963 7.292206 9.516129 37.636613 4.466096 87.931507 3.454606 38.239782 7.953524 2.743501 11.473989 2.258930 -3.037974 8.079697 8.539993 -20.484800 3.370748 37.340177 -33.725969 -23.605645 45.534111 -3.643113 8.485082 3.222717 -3.888877 13.095703 -10.527710 -0.466806 -5.851227 6.250088 -3.545920 -3.762777 1.519129 1.040506 0.045925 0.443632 0.973262 4.959105 0.862280 7.200277 4.688168 1.357169 1.738444 -4.552997 -3.141469 -0.087904 -0.075313 -0.138755
21.885240 90.291082 18.790723 -36.152364 -3.087974 1.239624 -3.378595 -4.094694 -1.123165 -1.033635 -2.348225 -0.685593 -1.033635 -2.348225 -0.685593 -0.777754 -1.760018 -0.518098 -4.509180 29.447855 -1.226319 -7.771833 18.526070 -1.343062 9.750741 8.244201 9.879177 36.743340 5.448901 89.177753 1.799330 38.930959 7.140462 2.879845 11.580301 2.424506 -2.779459 9.312018 8.731535 -18.816852 2.657820 38.539786 -34.381533 -25.056384 47.346313 -3.883200 8.776861 2.421740 -4.400169 12.655444 -10.561302 0.240062 -6.045352 6.139377 -3.608578 -3.842833 1.466442 1.087702 0.130499 0.466036 1.212143 4.622940 0.992930 7.265821 4.605231 1.132219 1.635882 -4.661908 -3.095369 -0.080392 -0.025558 -0.138812
21.738436 90.267261 18.791757 -36.437130 -2.760478 1.304667 -3.057791 -4.927938 -1.424641 -0.906570 -2.690501 -0.841927 -0.906570 -2.690501 -0.841927 -0.683513 -2.016637 -0.635324 -4.610425 30.145170 -1.121670 -7.974272 19.827875 -1.178282 8.674063 9.644058 10.299917 36.470773 6.255768 90.535648 0.514589 39.670178 6.562240 2.969160 11.518346 2.398230 -2.714067 11.157919 9.063946 -17.600492 1.426993 39.679094 -34.707679 -25.756307 48.865562 -4.079843 8.860528 1.838220 -4.508017 12.343703 -10.553413 0.694299 -6.138148 6.056600 -3.656214 -3.902938 1.409082 1.124386 0.186431 0.482119 1.323944 4.423704 1.004972 7.532150 4.542131 1.100888 1.636611 -4.721937 -3.120887 -0.111318 -0.012184 -0.155484
